<?xml version="1.0" encoding="UTF-8"?>
<!DOCTYPE svg PUBLIC "-//W3C//DTD SVG 1.1//EN" "http://www.w3.org/Graphics/SVG/1.1/DTD/svg11.dtd">
<svg xmlns="http://www.w3.org/2000/svg" version="1.1" width="300px" height="158px" style="shape-rendering:geometricPrecision; text-rendering:geometricPrecision; image-rendering:optimizeQuality; fill-rule:evenodd; clip-rule:evenodd" xmlns:xlink="http://www.w3.org/1999/xlink">
<g><path style="opacity:0.874" fill="#000000" d="M 74.5,-0.5 C 76.8333,-0.5 79.1667,-0.5 81.5,-0.5C 82.8014,0.639972 83.9681,1.97331 85,3.5C 85.6667,28.1667 85.6667,52.8333 85,77.5C 80.3333,84.1667 75.6667,84.1667 71,77.5C 70.3333,53.1667 70.3333,28.8333 71,4.5C 71.6972,2.4156 72.8639,0.748938 74.5,-0.5 Z"/></g>
<g><path style="opacity:0.923" fill="#000000" d="M 217.5,-0.5 C 220.167,-0.5 222.833,-0.5 225.5,-0.5C 226.504,0.682751 227.338,2.01608 228,3.5C 228.667,28.5 228.667,53.5 228,78.5C 223.667,83.8333 219.333,83.8333 215,78.5C 214.333,53.1667 214.333,27.8333 215,2.5C 216.045,1.62656 216.878,0.626561 217.5,-0.5 Z"/></g>
<g><path style="opacity:0.867" fill="#000000" d="M 39.5,23.5 C 43.8884,22.9433 47.0551,24.6099 49,28.5C 49.6667,40.5 49.6667,52.5 49,64.5C 46.3351,69.4344 42.5018,70.6011 37.5,68C 36.283,66.3523 35.4497,64.519 35,62.5C 34.0852,50.4422 34.4186,38.4422 36,26.5C 37.1451,25.3636 38.3117,24.3636 39.5,23.5 Z"/></g>
<g><path style="opacity:0.86" fill="#000000" d="M 111.5,23.5 C 116.423,22.8711 119.589,24.8711 121,29.5C 121.667,40.8333 121.667,52.1667 121,63.5C 118.872,69.3131 115.039,70.8131 109.5,68C 108.299,67.0975 107.465,65.9308 107,64.5C 106.333,52.5 106.333,40.5 107,28.5C 108.025,26.313 109.525,24.6464 111.5,23.5 Z"/></g>
<g><path style="opacity:0.909" fill="#000000" d="M 182.5,23.5 C 186.639,22.7042 189.805,24.0375 192,27.5C 192.667,40.1667 192.667,52.8333 192,65.5C 187.667,70.8333 183.333,70.8333 179,65.5C 178.333,52.8333 178.333,40.1667 179,27.5C 180.102,26.051 181.269,24.7177 182.5,23.5 Z"/></g>
<g><path style="opacity:0.908" fill="#000000" d="M 254.5,23.5 C 258.888,22.9433 262.055,24.6099 264,28.5C 264.667,40.5 264.667,52.5 264,64.5C 261.335,69.4344 257.502,70.6011 252.5,68C 251.874,67.2496 251.374,66.4162 251,65.5C 250.333,52.5 250.333,39.5 251,26.5C 252.145,25.3636 253.312,24.3636 254.5,23.5 Z"/></g>
<g><path style="opacity:0.892" fill="#000000" d="M -0.5,65.5 C -0.5,58.8333 -0.5,52.1667 -0.5,45.5C 3.90821,40.2464 8.40821,40.2464 13,45.5C 13.6667,52.1667 13.6667,58.8333 13,65.5C 8.50624,70.7525 4.00624,70.7525 -0.5,65.5 Z"/></g>
<g><path style="opacity:0.891" fill="#000000" d="M 146.5,41.5 C 150.684,40.7036 153.85,42.037 156,45.5C 156.667,52.1667 156.667,58.8333 156,65.5C 151.749,70.726 147.415,70.726 143,65.5C 142.333,58.8333 142.333,52.1667 143,45.5C 144.376,44.2949 145.542,42.9616 146.5,41.5 Z"/></g>
<g><path style="opacity:0.889" fill="#000000" d="M 299.5,44.5 C 299.5,51.8333 299.5,59.1667 299.5,66.5C 294.215,70.9422 289.715,70.2755 286,64.5C 285.333,58.5 285.333,52.5 286,46.5C 289.715,40.7245 294.215,40.0578 299.5,44.5 Z"/></g>
<g><path style="opacity:0.901" fill="#000000" d="M 63.5,157.5 C 57.8333,157.5 52.1667,157.5 46.5,157.5C 27.9654,150.074 22.1321,136.741 29,117.5C 38.4473,103.757 51.2807,99.4233 67.5,104.5C 67.5,109.5 67.5,114.5 67.5,119.5C 61.9632,117.709 56.2965,117.209 50.5,118C 41.7243,122.662 39.5576,129.496 44,138.5C 51.1159,144.444 58.7825,145.111 67,140.5C 67.4994,145.823 67.666,151.156 67.5,156.5C 65.901,156.232 64.5676,156.566 63.5,157.5 Z"/></g>
<g><path style="opacity:0.897" fill="#000000" d="M 137.5,157.5 C 130.833,157.5 124.167,157.5 117.5,157.5C 116.791,156.596 115.791,156.263 114.5,156.5C 114.5,152.167 114.5,147.833 114.5,143.5C 118.823,144.164 123.157,144.831 127.5,145.5C 131.308,145.686 134.308,144.353 136.5,141.5C 136.471,139.971 135.804,138.804 134.5,138C 129.669,136.39 125.003,134.39 120.5,132C 114.07,125.738 112.903,118.571 117,110.5C 120.547,106.286 125.047,103.786 130.5,103C 136.577,102.512 142.577,103.012 148.5,104.5C 148.5,108.5 148.5,112.5 148.5,116.5C 143.187,115.638 137.854,115.471 132.5,116C 129.654,116.879 128.987,118.546 130.5,121C 136.458,123.095 142.124,125.761 147.5,129C 155.155,142.542 151.821,152.042 137.5,157.5 Z"/></g>
<g><path style="opacity:0.907" fill="#000000" d="M 200.5,157.5 C 194.833,157.5 189.167,157.5 183.5,157.5C 163.798,148.568 158.631,134.235 168,114.5C 177.986,103.531 190.152,100.198 204.5,104.5C 204.5,109.5 204.5,114.5 204.5,119.5C 198.963,117.709 193.296,117.209 187.5,118C 178.576,123.27 176.743,130.436 182,139.5C 189.091,144.408 196.424,144.741 204,140.5C 204.499,145.823 204.666,151.156 204.5,156.5C 202.901,156.232 201.568,156.566 200.5,157.5 Z"/></g>
<g><path style="opacity:0.913" fill="#000000" d="M 252.5,157.5 C 247.5,157.5 242.5,157.5 237.5,157.5C 219.896,150.623 213.729,137.956 219,119.5C 227.431,104.463 239.931,99.6297 256.5,105C 268.616,111.059 274.116,120.893 273,134.5C 270.828,146.497 263.995,154.163 252.5,157.5 Z M 241.5,117.5 C 253.879,117.249 259.046,123.249 257,135.5C 252.767,143.023 246.6,145.189 238.5,142C 231.327,135.438 230.66,128.271 236.5,120.5C 238.145,119.304 239.811,118.304 241.5,117.5 Z"/></g>
<g><path style="opacity:0.851" fill="#000000" d="M 98.5,157.5 C 93.8333,157.5 89.1667,157.5 84.5,157.5C 83.514,139.577 83.1807,121.577 83.5,103.5C 88.5,103.5 93.5,103.5 98.5,103.5C 98.5,121.5 98.5,139.5 98.5,157.5 Z"/></g>
<g><path style="opacity:0.418" fill="#000000" d="M 299.5,148.5 C 299.5,151.5 299.5,154.5 299.5,157.5C 298.833,157.5 298.167,157.5 297.5,157.5C 297.167,156.167 296.833,156.167 296.5,157.5C 296.167,157.5 295.833,157.5 295.5,157.5C 294.833,156.167 294.167,156.167 293.5,157.5C 292.833,157.5 292.167,157.5 291.5,157.5C 291.167,149.5 290.833,149.5 290.5,157.5C 289.833,157.5 289.167,157.5 288.5,157.5C 287.248,155.661 287.248,153.828 288.5,152C 287.552,151.517 286.552,151.351 285.5,151.5C 285.5,150.5 285.5,149.5 285.5,148.5C 288.187,148.336 290.854,148.503 293.5,149C 294.893,150.171 295.727,151.671 296,153.5C 296.223,151.119 297.39,149.453 299.5,148.5 Z"/></g>
</svg>
