<?xml version="1.0" encoding="UTF-8"?>
<!DOCTYPE svg PUBLIC "-//W3C//DTD SVG 1.1//EN" "http://www.w3.org/Graphics/SVG/1.1/DTD/svg11.dtd">
<svg xmlns="http://www.w3.org/2000/svg" version="1.1" width="2400px" height="2400px" style="shape-rendering:geometricPrecision; text-rendering:geometricPrecision; image-rendering:optimizeQuality; fill-rule:evenodd; clip-rule:evenodd" xmlns:xlink="http://www.w3.org/1999/xlink">
<g><path style="opacity:0.991" fill="#000000" d="M 189.5,898.5 C 225.816,895.163 259.483,902.997 290.5,922C 302.544,929.357 313.878,937.69 324.5,947C 451.333,1081.83 578.167,1216.67 705,1351.5C 707.11,1354.49 708.443,1357.83 709,1361.5C 710.709,1364.39 713.209,1365.72 716.5,1365.5C 725.838,1363.67 732.338,1358.33 736,1349.5C 736.5,1199.17 736.667,1048.83 736.5,898.5C 777.833,898.5 819.167,898.5 860.5,898.5C 860.667,1059.83 860.5,1221.17 860,1382.5C 853.678,1433.03 827.845,1469.53 782.5,1492C 759.844,1500.12 736.511,1502.79 712.5,1500C 690.071,1494.86 668.405,1487.52 647.5,1478C 633.407,1470.71 621.907,1460.55 613,1447.5C 486.465,1309.97 360.298,1172.13 234.5,1034C 226.167,1033.33 217.833,1033.33 209.5,1034C 206.906,1035.34 205.406,1037.51 205,1040.5C 204.5,1193.83 204.333,1347.17 204.5,1500.5C 159.5,1500.5 114.5,1500.5 69.5,1500.5C 69.3333,1341.17 69.5,1181.83 70,1022.5C 76.7196,969.864 103.886,932.031 151.5,909C 163.865,903.912 176.532,900.412 189.5,898.5 Z"/></g>
<g><path style="opacity:0.992" fill="#000000" d="M 941.5,898.5 C 983.167,898.5 1024.83,898.5 1066.5,898.5C 1066.33,1046.83 1066.5,1195.17 1067,1343.5C 1069.4,1354.9 1076.23,1362.06 1087.5,1365C 1291.17,1365.67 1494.83,1365.67 1698.5,1365C 1712.81,1360.7 1722.64,1351.53 1728,1337.5C 1735.3,1316.31 1732.97,1296.31 1721,1277.5C 1713.91,1268.74 1704.74,1263.91 1693.5,1263C 1557.5,1262.67 1421.5,1262.33 1285.5,1262C 1221.47,1253.42 1176.64,1219.59 1151,1160.5C 1141.48,1134.86 1137.32,1108.36 1138.5,1081C 1136.87,1014.59 1162.87,962.258 1216.5,924C 1238.17,910.111 1261.83,901.777 1287.5,899C 1634.83,898.5 1982.17,898.333 2329.5,898.5C 2329.5,943.5 2329.5,988.5 2329.5,1033.5C 2243.83,1033.5 2158.17,1033.5 2072.5,1033.5C 2072.5,1189.17 2072.5,1344.83 2072.5,1500.5C 2031.17,1500.5 1989.83,1500.5 1948.5,1500.5C 1948.5,1344.83 1948.5,1189.17 1948.5,1033.5C 1736.83,1033.33 1525.17,1033.5 1313.5,1034C 1293.07,1037.11 1279.23,1048.28 1272,1067.5C 1269.32,1085.44 1272.66,1102.11 1282,1117.5C 1292.36,1129.41 1305.52,1135.58 1321.5,1136C 1453.83,1136.33 1586.17,1136.67 1718.5,1137C 1785.99,1148.49 1832.49,1185.99 1858,1249.5C 1866.52,1276.53 1869.52,1304.2 1867,1332.5C 1862.63,1395.45 1834.46,1444.28 1782.5,1479C 1762.38,1490.82 1740.72,1497.82 1717.5,1500C 1506.14,1500.99 1294.81,1500.66 1083.5,1499C 1032.28,1489.43 993.443,1462.26 967,1417.5C 950.706,1388.66 942.373,1357.66 942,1324.5C 941.5,1182.5 941.333,1040.5 941.5,898.5 Z"/></g>
</svg>
