<?xml version="1.0" encoding="UTF-8"?>
<!DOCTYPE svg PUBLIC "-//W3C//DTD SVG 1.1//EN" "http://www.w3.org/Graphics/SVG/1.1/DTD/svg11.dtd">
<svg xmlns="http://www.w3.org/2000/svg" version="1.1" width="1356px" height="248px" style="shape-rendering:geometricPrecision; text-rendering:geometricPrecision; image-rendering:optimizeQuality; fill-rule:evenodd; clip-rule:evenodd" xmlns:xlink="http://www.w3.org/1999/xlink">
<g><path style="opacity:0.972" fill="#000000" d="M 658.5,-0.5 C 672.167,-0.5 685.833,-0.5 699.5,-0.5C 699.5,60.5 699.5,121.5 699.5,182.5C 685.833,182.5 672.167,182.5 658.5,182.5C 658.5,121.5 658.5,60.5 658.5,-0.5 Z"/></g>
<g><path style="opacity:0.996" fill="#000000" d="M 1009.5,-0.5 C 1022.83,-0.5 1036.17,-0.5 1049.5,-0.5C 1049.5,60.5 1049.5,121.5 1049.5,182.5C 1036.17,182.5 1022.83,182.5 1009.5,182.5C 1009.5,121.5 1009.5,60.5 1009.5,-0.5 Z"/></g>
<g><path style="opacity:0.976" fill="#000000" d="M -0.5,114.5 C -0.5,113.833 -0.5,113.167 -0.5,112.5C 37.132,75.3681 74.632,38.0348 112,0.5C 127,15.5 142,30.5 157,45.5C 172,30.5 187,15.5 202,0.5C 217.167,15.6667 232.333,30.8333 247.5,46C 210.333,83.1667 173.167,120.333 136,157.5C 135.333,158.167 135.333,158.833 136,159.5C 142.5,166 149,172.5 155.5,179C 156.167,179.667 156.833,179.667 157.5,179C 194.667,141.833 231.833,104.667 269,67.5C 284.167,82.6667 299.333,97.8333 314.5,113C 276.96,150.874 239.127,188.374 201,225.5C 186.027,211.361 171.194,197.028 156.5,182.5C 142.014,196.486 127.681,210.653 113.5,225C 112.5,225.667 111.5,225.667 110.5,225C 95.6526,210.319 80.9859,195.486 66.5,180.5C 103.153,143.347 139.986,106.347 177,69.5C 177.667,68.8333 177.667,68.1667 177,67.5C 170.333,60.8333 163.667,54.1667 157,47.5C 120.167,84.3333 83.3333,121.167 46.5,158C 45.5,158.667 44.5,158.667 43.5,158C 28.9652,143.298 14.2985,128.798 -0.5,114.5 Z"/></g>
<g><path style="opacity:0.97" fill="#000000" d="M 1106.5,16.5 C 1108.5,16.5 1110.5,16.5 1112.5,16.5C 1112.5,26.5 1112.5,36.5 1112.5,46.5C 1128.17,46.5 1143.83,46.5 1159.5,46.5C 1159.5,57.1667 1159.5,67.8333 1159.5,78.5C 1143.83,78.5 1128.17,78.5 1112.5,78.5C 1112.33,98.8361 1112.5,119.169 1113,139.5C 1114.88,146.875 1119.72,150.542 1127.5,150.5C 1136.09,149.643 1144.26,147.31 1152,143.5C 1153.82,145.126 1155.15,147.126 1156,149.5C 1159.3,157.063 1161.96,164.73 1164,172.5C 1144.01,183.594 1122.84,186.76 1100.5,182C 1082.8,176.295 1073.3,164.129 1072,145.5C 1071.33,104.5 1071.33,63.5 1072,22.5C 1083.6,20.539 1095.1,18.539 1106.5,16.5 Z"/></g>
<g><path style="opacity:0.781" fill="#000000" d="M 1355.5,51.5 C 1355.5,54.8333 1355.5,58.1667 1355.5,61.5C 1348.74,78.0393 1337.07,82.5393 1320.5,75C 1310.75,65.9495 1308.92,55.4495 1315,43.5C 1324.03,33.7341 1334.53,31.9008 1346.5,38C 1351.17,41.5282 1354.17,46.0282 1355.5,51.5 Z M 1328.5,38.5 C 1345.97,38.1257 1353.13,46.4591 1350,63.5C 1343.92,74.5263 1335.09,77.3596 1323.5,72C 1314.86,64.3777 1313.36,55.5443 1319,45.5C 1321.79,42.535 1324.96,40.2016 1328.5,38.5 Z M 1330.5,50.5 C 1332.53,50.3379 1334.53,50.5045 1336.5,51C 1337.83,52.3333 1337.83,53.6667 1336.5,55C 1334.53,55.4955 1332.53,55.6621 1330.5,55.5C 1330.5,53.8333 1330.5,52.1667 1330.5,50.5 Z"/></g>
<g><path style="opacity:0.975" fill="#000000" d="M 440.5,44.5 C 474.504,44.7629 495.671,61.4295 504,94.5C 509.606,120.567 504.606,144.233 489,165.5C 466.677,187.249 442.177,190.082 415.5,174C 413.291,172.127 411.458,169.96 410,167.5C 409.5,187.497 409.333,207.497 409.5,227.5C 395.833,227.5 382.167,227.5 368.5,227.5C 368.5,167.167 368.5,106.833 368.5,46.5C 380.5,46.5 392.5,46.5 404.5,46.5C 405.069,51.9114 406.069,57.2447 407.5,62.5C 416.439,52.5338 427.439,46.5338 440.5,44.5 Z M 431.5,78.5 C 449.042,78.5353 459.542,87.202 463,104.5C 464.583,115.573 463.249,126.239 459,136.5C 447.019,152.646 433.019,154.646 417,142.5C 410.766,134.241 407.599,124.908 407.5,114.5C 407.523,103.258 411.19,93.4247 418.5,85C 422.657,82.2548 426.99,80.0881 431.5,78.5 Z"/></g>
<g><path style="opacity:0.97" fill="#000000" d="M 567.5,44.5 C 584.967,43.0922 601.3,46.5922 616.5,55C 629.86,65.889 636.693,80.0557 637,97.5C 637.5,125.831 637.667,154.165 637.5,182.5C 625.495,182.667 613.495,182.5 601.5,182C 600.39,176.854 599.224,171.687 598,166.5C 580.517,184.224 560.017,188.724 536.5,180C 514.561,166.515 508.394,147.682 518,123.5C 525.224,112.293 535.391,105.126 548.5,102C 561.695,99.1262 575.029,97.1262 588.5,96C 597.752,92.6587 598.752,87.6587 591.5,81C 587.121,78.7567 582.455,77.5901 577.5,77.5C 560.591,79.2472 544.925,84.5805 530.5,93.5C 525.837,84.1601 521.67,74.4934 518,64.5C 517.219,63.0563 517.386,61.723 518.5,60.5C 534.041,52.3189 550.374,46.9855 567.5,44.5 Z M 595.5,120.5 C 598.126,146.696 586.459,156.862 560.5,151C 552.077,145.127 551.411,138.46 558.5,131C 561.089,129.803 563.756,128.803 566.5,128C 573.869,126.852 581.202,125.519 588.5,124C 591.174,123.33 593.507,122.163 595.5,120.5 Z"/></g>
<g><path style="opacity:0.976" fill="#000000" d="M 778.5,44.5 C 808.457,42.3968 831.624,53.7301 848,78.5C 851.532,85.0949 853.865,92.0949 855,99.5C 858.791,120.88 854.791,140.546 843,158.5C 818.725,183.893 789.892,190.726 756.5,179C 734.301,168.796 721.134,151.63 717,127.5C 712.023,97.059 721.856,72.8923 746.5,55C 756.602,49.354 767.269,45.854 778.5,44.5 Z M 781.5,78.5 C 797.017,77.8655 807.184,84.8655 812,99.5C 816.055,114.394 814.055,128.394 806,141.5C 789.924,154.751 775.59,153.084 763,136.5C 757.407,122.641 757.074,108.641 762,94.5C 766.32,86.3321 772.82,80.9987 781.5,78.5 Z"/></g>
<g><path style="opacity:0.972" fill="#000000" d="M 917.5,44.5 C 931.184,43.877 944.517,45.7103 957.5,50C 975.935,59.0127 985.768,73.846 987,94.5C 987.5,123.831 987.667,153.165 987.5,182.5C 975.482,182.832 963.482,182.499 951.5,181.5C 950.56,176.381 949.393,171.381 948,166.5C 931.674,183.755 912.174,188.588 889.5,181C 869.336,171.508 861.169,155.675 865,133.5C 867.374,122.803 873.207,114.637 882.5,109C 887.599,106.117 892.933,103.783 898.5,102C 911.706,99.1825 925.039,97.1825 938.5,96C 947.01,93.7847 948.677,89.118 943.5,82C 938.783,79.1194 933.617,77.6194 928,77.5C 910.936,79.1326 895.102,84.4659 880.5,93.5C 875.23,83.177 871.063,72.5103 868,61.5C 883.484,52.5065 899.984,46.8398 917.5,44.5 Z M 944.5,121.5 C 949.725,140.311 942.392,150.978 922.5,153.5C 916.227,153.538 910.727,151.538 906,147.5C 901.669,137.001 905.169,130.501 916.5,128C 926.239,126.996 935.572,124.83 944.5,121.5 Z"/></g>
<g><path style="opacity:0.975" fill="#000000" d="M 1227.5,44.5 C 1252.63,42.3728 1273.8,50.3728 1291,68.5C 1305.34,89.2191 1309.34,111.886 1303,136.5C 1291.96,168.294 1269.46,184.294 1235.5,184.5C 1191.15,182.15 1167.82,158.817 1165.5,114.5C 1167.28,74.1774 1187.95,50.8441 1227.5,44.5 Z M 1231.5,78.5 C 1249.49,78.6505 1259.99,87.6505 1263,105.5C 1266.1,121.371 1261.94,134.871 1250.5,146C 1231.64,154.605 1218.14,149.439 1210,130.5C 1206.3,117.922 1206.97,105.588 1212,93.5C 1216.28,85.4611 1222.78,80.4611 1231.5,78.5 Z"/></g>
<g><path style="opacity:0.82" fill="#000000" d="M 1324.5,45.5 C 1329.18,45.3342 1333.85,45.5008 1338.5,46C 1339.93,46.4652 1341.1,47.2986 1342,48.5C 1342.67,51.5 1342.67,54.5 1342,57.5C 1341.08,58.0465 1340.24,58.7132 1339.5,59.5C 1340.71,62.0794 1342.04,64.5794 1343.5,67C 1338.38,68.7194 1335.38,66.8861 1334.5,61.5C 1333.31,60.5713 1331.98,60.238 1330.5,60.5C 1330.5,62.8333 1330.5,65.1667 1330.5,67.5C 1328.5,67.5 1326.5,67.5 1324.5,67.5C 1324.5,60.1667 1324.5,52.8333 1324.5,45.5 Z M 1330.5,50.5 C 1330.5,52.1667 1330.5,53.8333 1330.5,55.5C 1332.53,55.6621 1334.53,55.4955 1336.5,55C 1337.83,53.6667 1337.83,52.3333 1336.5,51C 1334.53,50.5045 1332.53,50.3379 1330.5,50.5 Z"/></g>
<g><path style="opacity:0.912" fill="#000000" d="M 1162.5,247.5 C 1157.5,247.5 1152.5,247.5 1147.5,247.5C 1138.5,243.515 1134.67,236.515 1136,226.5C 1138.58,216.936 1144.92,212.269 1155,212.5C 1168.91,212.647 1175.24,219.647 1174,233.5C 1172.83,240.492 1169,245.158 1162.5,247.5 Z M 1152.5,221.5 C 1161.88,221.918 1165.04,226.584 1162,235.5C 1157.33,239.5 1152.67,239.5 1148,235.5C 1145.25,229.356 1146.75,224.689 1152.5,221.5 Z"/></g>
<g><path style="opacity:0.905" fill="#000000" d="M 1294.5,247.5 C 1289.17,247.5 1283.83,247.5 1278.5,247.5C 1276.4,246.388 1274.07,245.721 1271.5,245.5C 1271.33,241.818 1271.5,238.152 1272,234.5C 1278.03,237.946 1284.53,239.279 1291.5,238.5C 1291.5,237.5 1291.5,236.5 1291.5,235.5C 1284.03,235.622 1277.53,233.289 1272,228.5C 1269.72,219.884 1272.89,214.717 1281.5,213C 1287.96,212.151 1294.3,212.651 1300.5,214.5C 1300.5,217.833 1300.5,221.167 1300.5,224.5C 1296.3,223.035 1291.97,222.035 1287.5,221.5C 1286.17,221.667 1284.83,221.833 1283.5,222C 1283.04,222.414 1282.71,222.914 1282.5,223.5C 1286.68,225.09 1291.02,226.256 1295.5,227C 1302.18,229.626 1304.35,234.459 1302,241.5C 1299.87,244.153 1297.37,246.153 1294.5,247.5 Z"/></g>
<g><path style="opacity:0.905" fill="#000000" d="M 983.5,247.5 C 979.833,247.5 976.167,247.5 972.5,247.5C 968.217,241.377 963.717,235.377 959,229.5C 958.501,235.491 958.334,241.491 958.5,247.5C 955.167,247.5 951.833,247.5 948.5,247.5C 948.5,236.167 948.5,224.833 948.5,213.5C 952.555,213.176 956.555,213.509 960.5,214.5C 964.333,219.5 968.167,224.5 972,229.5C 972.499,224.177 972.666,218.844 972.5,213.5C 976.167,213.5 979.833,213.5 983.5,213.5C 983.5,224.833 983.5,236.167 983.5,247.5 Z"/></g>
<g><path style="opacity:0.901" fill="#000000" d="M 1024.5,247.5 C 1014.5,247.5 1004.5,247.5 994.5,247.5C 994.5,236.167 994.5,224.833 994.5,213.5C 1004.5,213.5 1014.5,213.5 1024.5,213.5C 1024.5,216.5 1024.5,219.5 1024.5,222.5C 1018.17,222.5 1011.83,222.5 1005.5,222.5C 1005.5,223.5 1005.5,224.5 1005.5,225.5C 1010.5,225.5 1015.5,225.5 1020.5,225.5C 1020.5,228.167 1020.5,230.833 1020.5,233.5C 1015.5,233.5 1010.5,233.5 1005.5,233.5C 1005.5,235.167 1005.5,236.833 1005.5,238.5C 1012.17,238.5 1018.83,238.5 1025.5,238.5C 1025.04,241.482 1024.7,244.482 1024.5,247.5 Z"/></g>
<g><path style="opacity:0.941" fill="#000000" d="M 1054.5,247.5 C 1051.17,247.5 1047.83,247.5 1044.5,247.5C 1044.5,239.167 1044.5,230.833 1044.5,222.5C 1040.5,222.5 1036.5,222.5 1032.5,222.5C 1032.5,219.5 1032.5,216.5 1032.5,213.5C 1043.83,213.5 1055.17,213.5 1066.5,213.5C 1066.5,216.5 1066.5,219.5 1066.5,222.5C 1062.5,222.5 1058.5,222.5 1054.5,222.5C 1054.5,230.833 1054.5,239.167 1054.5,247.5 Z"/></g>
<g><path style="opacity:0.904" fill="#000000" d="M 1121.5,247.5 C 1116.83,247.5 1112.17,247.5 1107.5,247.5C 1105.9,241.712 1103.9,236.045 1101.5,230.5C 1099.1,236.045 1097.1,241.712 1095.5,247.5C 1090.83,247.5 1086.17,247.5 1081.5,247.5C 1078.83,236.167 1076.17,224.833 1073.5,213.5C 1077.44,213.207 1081.27,213.54 1085,214.5C 1086.54,221.202 1088.21,227.869 1090,234.5C 1092,227.833 1094,221.167 1096,214.5C 1099.73,213.54 1103.56,213.207 1107.5,213.5C 1108.89,220.338 1110.89,227.005 1113.5,233.5C 1115.32,227.205 1116.99,220.872 1118.5,214.5C 1122.11,213.511 1125.77,213.177 1129.5,213.5C 1126.52,224.757 1123.85,236.091 1121.5,247.5 Z"/></g>
<g><path style="opacity:0.894" fill="#000000" d="M 1218.5,247.5 C 1214.5,247.5 1210.5,247.5 1206.5,247.5C 1204.39,244.784 1202.39,241.95 1200.5,239C 1198.53,238.505 1196.53,238.338 1194.5,238.5C 1194.5,241.5 1194.5,244.5 1194.5,247.5C 1190.83,247.5 1187.17,247.5 1183.5,247.5C 1183.5,236.167 1183.5,224.833 1183.5,213.5C 1192.17,213.334 1200.84,213.5 1209.5,214C 1212.58,214.786 1214.75,216.619 1216,219.5C 1216.67,223.167 1216.67,226.833 1216,230.5C 1215.22,233.076 1213.72,235.076 1211.5,236.5C 1214.1,240.054 1216.44,243.721 1218.5,247.5 Z M 1194.5,222.5 C 1197.85,222.335 1201.18,222.502 1204.5,223C 1207.17,225 1207.17,227 1204.5,229C 1201.18,229.498 1197.85,229.665 1194.5,229.5C 1194.5,227.167 1194.5,224.833 1194.5,222.5 Z"/></g>
<g><path style="opacity:0.888" fill="#000000" d="M 1264.5,247.5 C 1260.5,247.5 1256.5,247.5 1252.5,247.5C 1250.22,244.044 1247.72,240.71 1245,237.5C 1243.74,235.393 1241.9,234.393 1239.5,234.5C 1239.5,238.833 1239.5,243.167 1239.5,247.5C 1235.83,247.5 1232.17,247.5 1228.5,247.5C 1228.5,236.167 1228.5,224.833 1228.5,213.5C 1232.17,213.5 1235.83,213.5 1239.5,213.5C 1239.5,217.5 1239.5,221.5 1239.5,225.5C 1240.55,225.649 1241.55,225.483 1242.5,225C 1245.5,221.333 1248.5,217.667 1251.5,214C 1255.83,213.333 1260.17,213.333 1264.5,214C 1259.93,218.738 1255.93,223.905 1252.5,229.5C 1255.76,234.927 1259.59,239.927 1264,244.5C 1264.48,245.448 1264.65,246.448 1264.5,247.5 Z"/></g>
</svg>
